HIERARCHY
ROOT Hips
{
	OFFSET	0.00	0.00	0.00
	CHANNELS 6 Xposition Yposition Zposition Zrotation Xrotation Yrotation
	JOINT LeftUpLeg
	{
		OFFSET	 0.126116	-0.014019	-0.065224
		CHANNELS 3 Zrotation Xrotation Yrotation
		JOINT LeftLeg
		{
			OFFSET	 0.000000	 0.000000	 0.569914
			CHANNELS 3 Zrotation Xrotation Yrotation
			JOINT LeftFoot
			{
				OFFSET	 0.000000	 0.000000	 0.544423
				CHANNELS 3 Zrotation Xrotation Yrotation
				JOINT LeftToeBase
				{
					OFFSET	 0.000000	 0.000000	 0.207117
					CHANNELS 3 Zrotation Xrotation Yrotation
					End Site
					{
						OFFSET	 0.000000	 0.000000	 0.207117
					}
				}
			}
		}
	}
	JOINT RightUpLeg
	{
		OFFSET	-0.124023	-0.008373	-0.065224
		CHANNELS 3 Zrotation Xrotation Yrotation
		JOINT RightLeg
		{
			OFFSET	 0.000000	 0.000000	 0.570047
			CHANNELS 3 Zrotation Xrotation Yrotation
			JOINT RightFoot
			{
				OFFSET	 0.000000	 0.000000	 0.544354
				CHANNELS 3 Zrotation Xrotation Yrotation
				JOINT RightToeBase
				{
					OFFSET	 0.000000	 0.000000	 0.207540
					CHANNELS 3 Zrotation Xrotation Yrotation
					End Site
					{
						OFFSET	 0.000000	 0.000000	 0.207540
					}
				}
			}
		}
	}
	JOINT Spine
	{
		OFFSET	 0.000184	-0.007763	 0.117403
		CHANNELS 3 Zrotation Xrotation Yrotation
		JOINT Spine1
		{
			OFFSET	 0.000000	 0.000000	 0.137269
			CHANNELS 3 Zrotation Xrotation Yrotation
			JOINT Spine2
			{
				OFFSET	 0.000000	 0.000000	 0.156879
				CHANNELS 3 Zrotation Xrotation Yrotation
				JOINT LeftShoulder
				{
					OFFSET	 0.080501	-0.002496	 0.160144
					CHANNELS 3 Zrotation Xrotation Yrotation
					JOINT LeftArm
					{
						OFFSET	 0.000000	 0.000000	 0.164363
						CHANNELS 3 Zrotation Xrotation Yrotation
						JOINT LeftForeArm
						{
							OFFSET	 0.000000	 0.000000	 0.364576
							CHANNELS 3 Zrotation Xrotation Yrotation
							JOINT LeftHand
							{
								OFFSET	 0.000000	 0.000000	 0.360812
								CHANNELS 3 Zrotation Xrotation Yrotation
								JOINT LeftHandIndex1
								{
									OFFSET	 0.000000	 0.000000	 0.086006
									CHANNELS 3 Zrotation Xrotation Yrotation
									JOINT LeftHandIndex2
									{
										OFFSET	 0.000000	 0.000000	 0.047236
										CHANNELS 3 Zrotation Xrotation Yrotation
										JOINT LeftHandIndex3
										{
											OFFSET	-0.004284	-0.000551	 0.038166
											CHANNELS 3 Zrotation Xrotation Yrotation
											End Site
											{
												OFFSET	-0.004284	-0.000551	 0.038166
											}
										}
									}
								}
							}
						}
					}
				}
				JOINT Neck
				{
					OFFSET	 0.000000	 0.000000	 0.176489
					CHANNELS 3 Zrotation Xrotation Yrotation
					JOINT Head
					{
						OFFSET	 0.000000	-0.001747	 0.077940
						CHANNELS 3 Zrotation Xrotation Yrotation
						End Site
						{
							OFFSET	 0.000000	-0.001747	 0.077940
						}
					}
				}
				JOINT RightShoulder
				{
					OFFSET	-0.080363	 0.000306	 0.159706
					CHANNELS 3 Zrotation Xrotation Yrotation
					JOINT RightArm
					{
						OFFSET	 0.000000	 0.000000	 0.164196
						CHANNELS 3 Zrotation Xrotation Yrotation
						JOINT RightForeArm
						{
							OFFSET	 0.000000	 0.000000	 0.365611
							CHANNELS 3 Zrotation Xrotation Yrotation
							JOINT RightHand
							{
								OFFSET	 0.000000	 0.000000	 0.360648
								CHANNELS 3 Zrotation Xrotation Yrotation
								JOINT RightHandIndex1
								{
									OFFSET	 0.000000	 0.000000	 0.069977
									CHANNELS 3 Zrotation Xrotation Yrotation
									JOINT RightHandIndex2
									{
										OFFSET	 0.000000	 0.000000	 0.052305
										CHANNELS 3 Zrotation Xrotation Yrotation
										JOINT RightHandIndex3
										{
											OFFSET	 0.009002	-0.000782	 0.042196
											CHANNELS 3 Zrotation Xrotation Yrotation
											End Site
											{
												OFFSET	 0.009002	-0.000782	 0.042196
											}
										}
									}
								}
							}
						}
					}
				}
			}
		}
	}
}
MOTION
Frames:    11
Frame Time: 0.03333334
-0.000197	 0.027457	 1.229187	-0.002231	 0.002345	 0.025813	 25.407520	-14.377990	 175.554600	 0.912615	-32.988720	-2.140102	-22.407430	 79.162750	 17.130450	-2.385833	 28.452760	 0.000004	-25.573140	-14.869450	-175.786700	-0.900904	-33.185160	 2.116558	 20.884070	 79.120170	-15.679840	 2.384658	 28.388730	 0.000004	 35.894240	 3.715600	 0.133283	-0.244350	 0.225192	-0.147355	 0.741513	-0.288345	 0.140005	-91.776180	 78.527470	 180.000000	 41.378620	 30.304950	-51.716550	-23.009250	 2.397252	-8.298582	-37.885850	 1.824515	-4.008922	-2.635965	 4.993658	 6.788941	-5.165319	 0.784187	 3.516649	-5.225038	 0.466231	 0.424329	-0.000002	-3.783157	-0.089647	 0.732785	 7.100435	-0.045478	 89.782140	 78.203900	 180.000000	 1.848517	 12.474500	 110.416600	-19.535800	 2.080496	 8.417097	 12.792970	-0.405823	-6.158750	 6.112037	 4.509576	-0.364401	 4.968462	 1.518543	-9.347576	 5.168945	 0.703820	 2.021906
-0.000157	 0.027721	 1.230034	-0.003353	 0.003533	 0.043464	 25.417480	-14.248300	 175.535300	 0.925441	-32.698510	-2.116437	-22.044670	 79.027860	 16.759530	-2.385833	 28.452760	 0.000004	-25.589390	-14.730010	-175.803800	-0.914353	-32.878460	 2.091897	 20.482720	 78.964280	-15.269020	 2.384658	 28.388730	 0.000004	 31.264280	 3.700933	 0.168346	-0.436780	 0.272495	-0.259054	 1.323638	-0.345300	 0.249147	-91.776240	 78.527450	-180.000000	 41.368590	 30.443880	-51.775350	-18.551830	 1.284361	-6.009885	-38.299950	 1.883928	-3.991198	-2.635965	 4.993658	 6.788941	-5.165319	 0.784187	 3.516649	-5.225038	 0.466231	 0.424329	-0.000002	-3.783157	-0.089647	 1.313415	 7.059125	-0.081030	 89.782140	 78.203890	 180.000000	 1.730848	 12.671620	 110.416000	-24.152500	 0.958298	 6.103640	 13.238050	-0.544933	-6.205257	 6.112037	 4.509576	-0.364401	 4.968462	 1.518543	-9.347576	 5.168945	 0.703820	 2.021906
-0.000076	 0.027949	 1.230656	-0.004300	 0.004510	 0.059746	 25.424220	-14.155560	 175.518500	 0.934692	-32.486860	-2.099268	-21.783510	 78.929120	 16.492250	-2.385833	 28.452760	 0.000004	-25.602240	-14.628880	-175.821100	-0.924196	-32.650630	 2.073697	 20.178770	 78.845180	-14.957580	 2.384658	 28.388730	 0.000004	 24.221740	 3.678735	 0.202702	-0.625304	 0.347164	-0.365835	 1.894050	-0.433910	 0.356737	-91.776200	 78.527450	-180.000000	 41.419610	 30.639600	-51.933270	-13.591730	 0.497726	-3.375135	-38.738800	 1.941103	-3.974555	-2.635965	 4.993658	 6.788941	-5.165319	 0.784187	 3.516649	-5.225038	 0.466231	 0.424329	-0.000002	-3.783157	-0.089647	 1.881740	 6.995211	-0.115037	 89.782080	 78.203890	-180.000000	 1.593384	 12.915690	 110.358600	-29.284360	 0.163321	 3.439428	 13.424920	-0.525835	-6.259366	 6.112037	 4.509576	-0.364401	 4.968462	 1.518543	-9.347576	 5.168945	 0.703820	 2.021906
-0.000032	 0.028232	 1.231707	-0.004977	 0.005172	 0.074234	 25.438050	-13.984590	 175.500500	 0.950704	-32.114790	-2.069294	-21.341980	 78.755460	 16.040420	-2.385833	 28.452760	 0.000004	-25.621230	-14.451500	-175.833900	-0.940657	-32.264290	 2.043032	 19.711920	 78.651270	-14.479220	 2.384658	 28.388730	 0.000004	 15.056230	 3.649452	 0.235677	-0.806844	 0.447602	-0.465221	 2.443403	-0.552415	 0.461355	-91.776250	 78.527490	-180.000000	 41.533240	 30.888880	-52.190680	-8.287333	 0.177375	-0.504066	-39.196500	 1.994494	-3.959481	-2.635965	 4.993658	 6.788941	-5.165319	 0.784187	 3.516649	-5.225038	 0.466231	 0.424329	-0.000002	-3.783157	-0.089647	 2.428097	 6.910646	-0.146644	 89.782110	 78.203890	 180.000000	-0.917793	 12.978480	 109.991900	-34.527130	-0.162052	 0.539524	 12.911640	-0.303200	-6.296617	 6.112037	 4.509576	-0.364401	 4.968462	 1.518543	-9.347576	 5.168945	 0.703820	 2.021906
-0.000033	 0.028632	 1.233436	-0.005425	 0.005563	 0.088879	 25.462820	-13.689490	 175.477800	 0.977170	-31.484820	-2.019086	-20.630120	 78.460300	 15.311480	-2.385833	 28.452760	 0.000004	-25.650770	-14.151240	-175.843000	-0.967411	-31.619900	 1.992465	 18.992390	 78.332820	-13.741480	 2.384658	 28.388730	 0.000004	 2.525713	 3.600077	 0.226920	-1.006532	 0.605757	-0.486280	 3.046011	-0.732080	 0.539585	-91.776240	 78.527470	-180.000000	 41.717230	 31.229920	-52.568880	-1.945790	-0.242147	-3.843811	-39.746340	 2.050591	-3.944812	-2.635965	 4.993658	 6.788941	-5.165319	 0.784187	 3.516649	-5.225038	 0.466231	 0.424329	-0.000002	-3.783157	-0.089647	 3.026399	 6.789957	-0.179590	 89.782070	 78.203850	-180.000000	-6.853684	 13.525500	 109.049100	-39.865140	-0.574054	 3.841036	 12.554050	-0.402396	-6.206635	 6.112037	 4.509576	-0.364401	 4.968462	 1.518543	-9.347576	 5.168945	 0.703820	 2.021906
-0.000014	 0.028951	 1.234890	-0.005550	 0.005603	 0.099810	 25.484170	-13.435180	 175.459600	 0.999218	-30.944160	-1.976534	-20.048470	 78.205640	 14.715250	-2.385833	 28.452760	 0.000004	-25.675800	-13.894270	-175.849100	-0.989657	-31.067820	 1.949698	 18.406700	 78.058750	-13.140220	 2.384658	 28.388730	 0.000004	-9.143040	 3.556232	 0.249864	-1.169260	 0.757099	-0.557045	 3.538059	-0.910613	 0.632462	-91.776180	 78.527430	 180.000000	 41.937050	 31.571860	-52.986620	 3.526218	-1.227033	-6.766124	-40.237190	 2.093908	-3.934099	-2.635965	 4.993658	 6.788941	-5.165319	 0.784187	 3.516649	-5.225038	 0.466231	 0.424329	-0.000002	-3.783157	-0.089647	 3.513157	 6.667587	-0.204724	 89.782100	 78.203830	-180.000000	-13.195630	 14.877230	 107.083000	-43.571390	-1.544284	 6.740600	 13.517100	-1.107285	-5.970999	 6.112037	 4.509576	-0.364401	 4.968462	 1.518543	-9.347576	 5.168945	 0.703820	 2.021906
 0.000013	 0.029271	 1.236191	-0.005453	 0.005395	 0.109436	 25.500920	-13.232560	 175.444300	 1.016394	-30.512620	-1.942916	-19.600730	 78.001470	 14.255800	-2.385833	 28.452760	 0.000004	-25.698640	-13.661670	-175.854800	-1.009375	-30.565460	 1.911213	 17.892260	 77.807250	-12.611430	 2.384658	 28.388730	 0.000004	-20.742630	 3.505831	 0.271321	-1.324698	 0.932151	-0.621303	 4.008121	-1.118075	 0.724231	-91.776180	 78.527470	 180.000000	 42.213410	 31.951760	-53.481460	 8.875968	-2.755342	-9.497380	-40.742720	 2.133162	-3.924147	-2.635965	 4.993658	 6.788941	-5.165319	 0.784187	 3.516649	-5.225038	 0.466231	 0.424329	-0.000002	-3.783157	-0.089647	 3.976498	 6.528080	-0.226883	 89.782100	 78.203890	 180.000000	-20.550600	 17.354190	 104.092400	-46.567710	-3.053305	 9.456154	 15.705160	-2.224931	-5.519148	 6.112037	 4.509576	-0.364401	 4.968462	 1.518543	-9.347576	 5.168945	 0.703820	 2.021906
 0.000037	 0.029633	 1.237075	-0.005136	 0.004945	 0.117849	 25.510550	-13.109340	 175.433100	 1.026764	-30.247580	-1.922419	-19.330040	 77.875520	 13.977700	-2.385833	 28.452760	 0.000004	-25.714140	-13.517860	-175.863000	-1.021659	-30.245850	 1.886939	 17.558260	 77.642290	-12.267470	 2.384658	 28.388730	 0.000004	-31.136060	 3.448225	 0.291127	-1.473258	 1.133090	-0.678880	 4.457393	-1.357462	 0.815505	-91.776090	 78.527430	 179.999900	 42.538440	 32.357460	-54.032270	 13.947750	-4.727145	-11.912620	-41.267570	 2.167744	-3.914905	-2.635965	 4.993658	 6.788941	-5.165319	 0.784187	 3.516649	-5.225038	 0.466231	 0.424329	-0.000002	-3.783157	-0.089647	 4.417400	 6.370665	-0.245972	 89.782230	 78.203900	 179.999900	-28.448680	 21.381490	 100.452600	-48.930190	-5.002217	 11.859660	 18.957100	-3.568416	-4.749716	 6.112037	 4.509576	-0.364401	 4.968462	 1.518543	-9.347576	 5.168945	 0.703820	 2.021906
 0.000073	 0.029929	 1.238083	-0.004642	 0.004323	 0.124896	 25.520340	-12.984890	 175.423000	 1.037037	-29.981570	-1.901955	-19.064250	 77.748840	 13.704510	-2.385833	 28.452760	 0.000004	-25.728030	-13.391890	-175.870500	-1.032374	-29.962790	 1.865571	 17.264760	 77.494670	-11.964910	 2.384658	 28.388730	 0.000004	-38.540040	 3.385922	 0.308053	-1.608005	 1.350989	-0.727117	 4.864902	-1.618615	 0.902286	-91.776280	 78.527490	-179.999900	 42.918680	 32.772380	-54.642520	 18.334110	-6.844201	-13.813070	-41.788560	 2.195704	-3.906942	-2.635965	 4.993658	 6.788941	-5.165319	 0.784187	 3.516649	-5.225038	 0.466231	 0.424329	-0.000002	-3.783157	-0.089647	 4.815077	 6.203228	-0.261077	 89.782110	 78.203890	 180.000000	-36.263770	 25.630250	 95.294140	-50.535290	-7.097455	 13.757110	 22.007270	-4.602400	-3.675018	 6.112037	 4.509576	-0.364401	 4.968462	 1.518543	-9.347576	 5.168945	 0.703820	 2.021906
 0.000115	 0.030169	 1.239215	-0.004041	 0.003578	 0.130864	 25.530460	-12.857390	 175.413700	 1.047350	-29.710460	-1.881216	-18.799240	 77.619480	 13.431990	-2.385833	 28.452760	 0.000004	-25.741950	-13.264120	-175.877000	-1.043115	-29.675260	 1.843982	 16.973910	 77.344620	-11.664840	 2.384658	 28.388730	 0.000004	-41.864400	 3.318591	 0.322044	-1.730101	 1.586812	-0.766696	 5.234221	-1.903141	 0.985320	-91.776200	 78.527450	-180.000000	 43.317850	 33.180550	-55.253490	 21.914530	-8.850629	-15.200550	-42.310560	 2.216510	-3.900473	-2.635965	 4.993658	 6.788941	-5.165319	 0.784187	 3.516649	-5.225038	 0.466231	 0.424329	-0.000002	-3.783157	-0.089647	 5.173081	 6.025837	-0.272477	 89.782030	 78.203900	-180.000000	-41.487750	 29.409020	 82.461490	-48.960180	-15.355860	 24.541060	 24.590820	-5.223145	-2.251275	 6.112037	 4.509576	-0.364401	 4.968462	 1.518543	-9.347576	 5.168945	 0.703820	 2.021906
 0.000140	 0.030428	 1.240216	-0.003643	 0.003102	 0.137020	 25.541250	-12.725180	 175.404200	 1.057922	-29.428900	-1.859788	-18.530080	 77.484910	 13.155060	-2.385833	 28.452760	 0.000004	-25.756070	-13.131450	-175.883600	-1.054097	-29.376550	 1.821693	 16.679980	 77.188550	-11.361420	 2.384658	 28.388730	 0.000004	-40.137760	 3.245430	 0.331882	-1.839772	 1.842297	-0.798639	 5.566553	-2.213543	 1.065315	-91.776210	 78.527470	-180.000000	 43.735070	 33.571640	-55.851510	 24.522440	-10.464450	-16.100950	-42.836220	 2.229561	-3.895603	-2.635965	 4.993658	 6.788941	-5.165319	 0.784187	 3.516649	-5.225038	 0.466231	 0.424329	-0.000002	-3.783157	-0.089647	 5.492496	 5.838116	-0.280297	 89.782120	 78.203900	 180.000000	-46.382560	 32.687790	 71.635420	-46.289100	-19.208930	 29.903520	 27.276360	-5.449183	-0.420878	 6.112037	 4.509576	-0.364401	 4.968462	 1.518543	-9.347576	 5.168945	 0.703820	 2.021906
